<mxfile host="app.diagrams.net" modified="2021-05-10T10:59:35.581Z" agent="5.0 (Macintosh; Intel Mac OS X 10_15_7) AppleWebKit/537.36 (KHTML, like Gecko) Chrome/90.0.4430.93 Safari/537.36" etag="St8ZI3jNYxOBo2CwRx_0" version="14.6.11" type="github">
  <diagram id="ViDqoTmIqF2oK1tkXcC-" name="Page-1">
    <mxGraphModel dx="2066" dy="1076" grid="1" gridSize="10" guides="1" tooltips="1" connect="1" arrows="1" fold="1" page="1" pageScale="1" pageWidth="700" pageHeight="1000" math="0" shadow="0">
      <root>
        <mxCell id="0" />
        <mxCell id="1" parent="0" />
        <mxCell id="EtAnXmrmpmRFfEXg491m-182" value="" style="rounded=0;whiteSpace=wrap;html=1;strokeColor=#000000;strokeWidth=3;fillColor=none;gradientColor=#ffffff;" parent="1" vertex="1">
          <mxGeometry x="270" y="352.5" width="170" height="107.5" as="geometry" />
        </mxCell>
        <mxCell id="EtAnXmrmpmRFfEXg491m-189" style="edgeStyle=orthogonalEdgeStyle;rounded=0;orthogonalLoop=1;jettySize=auto;html=1;exitX=1;exitY=0.5;exitDx=0;exitDy=0;strokeWidth=4;" parent="1" source="EtAnXmrmpmRFfEXg491m-163" target="EtAnXmrmpmRFfEXg491m-190" edge="1">
          <mxGeometry relative="1" as="geometry">
            <mxPoint x="1010" y="406.1099999999999" as="targetPoint" />
          </mxGeometry>
        </mxCell>
        <mxCell id="EtAnXmrmpmRFfEXg491m-163" value="" style="rounded=0;whiteSpace=wrap;html=1;strokeColor=#000000;fillColor=none;gradientColor=#ffffff;strokeWidth=2;" parent="1" vertex="1">
          <mxGeometry x="510" y="326.25" width="380" height="160" as="geometry" />
        </mxCell>
        <mxCell id="EtAnXmrmpmRFfEXg491m-1" value="" style="html=1;verticalLabelPosition=bottom;align=center;labelBackgroundColor=#ffffff;verticalAlign=top;strokeWidth=2;strokeColor=#0080F0;shadow=0;dashed=0;shape=mxgraph.ios7.icons.data;" parent="1" vertex="1">
          <mxGeometry x="130" y="360" width="100" height="100" as="geometry" />
        </mxCell>
        <mxCell id="EtAnXmrmpmRFfEXg491m-2" value="" style="shape=image;html=1;verticalAlign=top;verticalLabelPosition=bottom;labelBackgroundColor=#ffffff;imageAspect=0;aspect=fixed;image=https://cdn4.iconfinder.com/data/icons/logos-brands-5/24/mysql-128.png" parent="1" vertex="1">
          <mxGeometry x="50" y="371.25" width="70" height="70" as="geometry" />
        </mxCell>
        <mxCell id="EtAnXmrmpmRFfEXg491m-3" value="" style="endArrow=classic;html=1;strokeWidth=4;" parent="1" source="EtAnXmrmpmRFfEXg491m-1" edge="1">
          <mxGeometry width="50" height="50" relative="1" as="geometry">
            <mxPoint x="240" y="410" as="sourcePoint" />
            <mxPoint x="270" y="410" as="targetPoint" />
          </mxGeometry>
        </mxCell>
        <mxCell id="EtAnXmrmpmRFfEXg491m-159" value="" style="shape=image;verticalLabelPosition=bottom;labelBackgroundColor=#ffffff;verticalAlign=top;aspect=fixed;imageAspect=0;image=data:image/svg+xml,PHN2ZyB4bWxucz0iaHR0cDovL3d3dy53My5vcmcvMjAwMC9zdmciIHdpZHRoPSIxMTEuOTk2MDAyMTk3MjY1NjIiIGhlaWdodD0iNTIiIHByZXNlcnZlQXNwZWN0UmF0aW89InhNaWRZTWlkIiBmaWxsPSIjMjMxZjIwIiB2aWV3Qm94PSI0IDQgMTExLjk5NjAwMjE5NzI2NTYyIDUyIj48cGF0aCBkPSJNMTQuOSA4LjYyN2MtLjU2NS0uNTc4LTEuMzUtLjkzMy0yLjIyNC0uOTMzYTMuMDUgMy4wNSAwIDAgMC0yLjIwOC45MzNoLS4wMTVhMy4xOCAzLjE4IDAgMCAwLS45MjMgMi4yNTggMy4xOCAzLjE4IDAgMCAwIC45MTMgMi4yNTJsLjAxNS4wMTZhMy4wNiAzLjA2IDAgMCAwIDIuMjA4LjkyM2MuODc0IDAgMS42NTgtLjM1IDIuMjI0LS45MjNsLjAwNi0uMDE2Yy41NjYtLjU2OC45LTEuMzYzLjktMi4yNTJhMy4yIDMuMiAwIDAgMC0uOTExLTIuMjU3aC4wMDV6bS0yLjIyNCA0My42OGMuODc0IDAgMS42NTgtLjM2MiAyLjIyNC0uOTNsLjAwNi0uMDE2Yy41NjYtLjU2Ni45LTEuMzY2LjktMi4yNDUgMC0uOS0uMzQ1LTEuNjg2LS45LTIuMjYySDE0LjljLS41NjUtLjU4My0xLjM1LS45MzYtMi4yMjQtLjkzNmEzLjAzIDMuMDMgMCAwIDAtMi4yMDguOTM2aC0uMDE1YTMuMjIgMy4yMiAwIDAgMC0uOTEzIDIuMjYyIDMuMTggMy4xOCAwIDAgMCAuOTEzIDIuMjQ1bC4wMTUuMDE2YTMuMDkgMy4wOSAwIDAgMCAyLjIwOC45Mjl6TTI5Ljc2IDQyLjY0YTMuMSAzLjEgMCAwIDAgMS45MS0xLjQ4MmwuMDU4LS4xMTJhMy4xOSAzLjE5IDAgMCAwIC4yNDgtMi4zMTFjLS4yMDYtLjc5Ni0uNy0xLjUwMi0xLjQ2Mi0xLjk0bC0uMDQ0LS4wM2EzLjA4IDMuMDggMCAwIDAtMi4zMzQtLjI4NmMtLjc4LjE5OC0xLjQ4LjcyNy0xLjkwOCAxLjQ4N2EzLjI2IDMuMjYgMCAwIDAtLjMxNiAyLjQyNSAzLjIzIDMuMjMgMCAwIDAgMS40NjEgMS45NDJoLjAwNWMuNzUuNDQgMS41OTcuNTE3IDIuMzgzLjN6bS0xMy44NzctMTUuOWMtLjgyMy0uODM1LTEuOTYtMS4zNi0zLjIxNi0xLjM2YTQuNDkgNC40OSAwIDAgMC0zLjIxIDEuMzU5Yy0uODIuODM0LTEuMzI0IDEuOTg1LTEuMzI0IDMuMjY1YTQuNjkgNC42OSAwIDAgMCAxLjMyNCAzLjI3OWMuODIuODMgMS45NTQgMS4zNSAzLjIgMS4zNXMyLjM5My0uNTIgMy4yMTYtMS4zNWE0LjY5IDQuNjkgMCAwIDAgMS4zMjYtMy4yOCA0LjYzIDQuNjMgMCAwIDAtMS4zMjYtMy4yNjV6bS0xLjgtNS40MzhhOC41NyA4LjU3IDAgMCAxIDQuNzE2IDIuNDc5aC4wMWE4LjYyIDguNjIgMCAwIDEgLjU3My42NDdsMy4xMy0xLjg0M2E2LjkgNi45IDAgMCAxLS4xMDItMy45MTdjLjQ0Ni0xLjcgMS41My0zLjIyIDMuMTUyLTQuMTczbC4wNTMtLjAzNGE2LjYzIDYuNjMgMCAwIDEgNS4wNzctLjY2MyA2Ljc1IDYuNzUgMCAwIDEgNC4xIDMuMnYuMDA1Yy45MzIgMS42NCAxLjEyIDMuNTIyLjY3NyA1LjIxNi0uNDQ0IDEuNy0xLjUzIDMuMjMtMy4xNTIgNC4xNzhsLS40MjguMjU3aC0uMDQzYTYuNjkgNi42OSAwIDAgMS00LjY2My40MzUgNi43NiA2Ljc2IDAgMCAxLTMuMjc3LTIuMDQ0bC0zLjEyNiAxLjgzN2E4Ljg0IDguODQgMCAwIDEgLjU1OCAzLjExMmMwIDEuMDk2LS4xOTggMi4xNTQtLjU1OCAzLjEyNmwzLjEyNiAxLjgzM2MuODkzLTEuMDE4IDIuMDM0LTEuNyAzLjI3Ny0yLjA0NSAxLjY3LS40NjQgMy41MTgtLjI2NyA1LjEzNC42OTJsLjEwNC4wNXYuMDA1YTYuODYgNi44NiAwIDAgMSAzLjA0OCA0LjEyOSA2Ljk3IDYuOTcgMCAwIDEtLjY3NyA1LjIxMWwtLjA1Ni4xMTVoLS4wMDdhNi44MiA2LjgyIDAgMCAxLTQuMDQyIDMuMTEyYy0xLjY3LjQ0OC0zLjUyLjI1Ny01LjEzNS0uNjg4di0uMDEzYTYuODQgNi44NCAwIDAgMS0zLjE1Mi00LjE3NSA2Ljg3IDYuODcgMCAwIDEgLjEwMi0zLjkxMWwtMy4xMy0xLjgzOGE4LjczIDguNzMgMCAwIDEtLjU3My42MzdsLS4wMS4wMWMtMS4yNTIgMS4yOC0yLjkgMi4xNy00LjcxNiAyLjQ2NXYzLjY4YTYuNjkgNi42OSAwIDAgMSAzLjM3NyAxLjg2N2wuMDA1LjAxYzEuMjIzIDEuMjM4IDEuOTggMi45NjQgMS45OCA0Ljg2YTYuOSA2LjkgMCAwIDEtMS45OCA0Ljg1bC0uMDA1LjAyQzE2LjIyIDU1LjIzIDE0LjUzIDU2IDEyLjY2NyA1NmMtMS44NTQgMC0zLjU0OC0uNzctNC43NzYtMi4wMTVoLS4wMDV2LS4wMmE2LjkgNi45IDAgMCAxLTEuOTgzLTQuODUxYzAtMS44OTcuNzYtMy42MjIgMS45ODMtNC44NnYtLjAxaC4wMDVhNi41OCA2LjU4IDAgMCAxIDMuMzc0LTEuODY3di0zLjY4Yy0xLjgyNS0uMjk2LTMuNDYtMS4xODUtNC43LTIuNDY1bC0uMDEzLS4wMUE4Ljg4IDguODggMCAwIDEgNCAyOS45OTVjMC0yLjQzLjk3OC00LjYyOCAyLjU0LTYuMjIzaC4wMTNhOC41NSA4LjU1IDAgMCAxIDQuNzExLTIuNDc5di0zLjY2NWE2LjgxIDYuODEgMCAwIDEtMy4zNzQtMS44NzJoLS4wMDV2LS4wMWE2LjkyIDYuOTIgMCAwIDEtMS45ODMtNC44NjEgNi45MyA2LjkzIDAgMCAxIDEuOTgzLTQuODZMNy45IDYuMDJBNi42NSA2LjY1IDAgMCAxIDEyLjY2NyA0YzEuODY0IDAgMy41NTMuNzcgNC43ODQgMi4wMnYuMDA1aC4wMDVjMS4yMjMgMS4yNDUgMS45OCAyLjk3MyAxLjk4IDQuODZhNi45NCA2Ljk0IDAgMCAxLTEuOTggNC44NmwtLjAwNS4wMWMtLjkxMi45MjQtMi4wNzYgMS41ODUtMy4zNzcgMS44NzJ2My42NjV6bTE3LjU4NS0yLjQ0NWwtLjAyNi0uMDRhMy4xNSAzLjE1IDAgMCAwLTEuODgzLTEuNDQ3IDMuMDkgMy4wOSAwIDAgMC0yLjM4OC4zMTdoLjAwNWMtLjc1Mi40MzQtMS4yNTUgMS4xNDUtMS40NjYgMS45NGEzLjI0IDMuMjQgMCAwIDAgLjMxNiAyLjQyNWwuMDE0LjAyYy40MzMuNzUgMS4xMjMgMS4yNTUgMS44OTMgMS40NTguNzczLjIyMiAxLjYzNi4xMjggMi4zNzgtLjMxMmwuMDQtLjAyYy43My0uNDQ0IDEuMjItMS4xNDYgMS40MjItMS45MTYuMjA3LS43OTUuMTI1LTEuNjY0LS4zMDUtMi40MjVtMTMuODkyIDEuMDc3aDMuNDkzdjEwLjg1Mmw1LjAzOC01LjY3aDQuMmwtNi4wODIgNi41N0w1OC4yOTYgNDBoLTRsLTUuMjUyLTcuNDM4VjQwSDQ1LjU1VjE5LjkyNG0xNi43NzggMTIuNjkzYzAgMS44NDggMS4zMDYgNC41MzQgNC40NTMgNC41MzQgMS45NDcgMCAzLjIyOC0xLjAzMiAzLjg5My0yLjM4NS4zNDgtLjY1Ny41MDgtMS4zNi41NjItMi4xYTQuNzUgNC43NSAwIDAgMC0uNDAyLTIuMDk1Yy0uNjEyLTEuNDA3LTEuOTcyLTIuNjI3LTQuMDc4LTIuNjI3LTIuODI1IDAtNC40MjcgMi4zMy00LjQyNyA0LjYzOHYuMDI1ek03NC43IDQwaC0zLjQ5NXYtMi4xNDNjLS45MyAxLjczMy0yLjg3OCAyLjYwMy00LjkzMiAyLjYwMy00LjY5MyAwLTcuNDQtMy43Mi03LjQ0LTcuOTIyIDAtNC42OTMgMy4zMzMtNy44OTQgNy40NC03Ljg5NCAyLjY2NiAwIDQuMjkyIDEuNDM4IDQuOTMyIDIuNjMzdi0yLjE3M0g3NC43VjQwbTMuOTU3LTEyLjE1NGgtMS44di0yLjc0aDEuOHYtLjg0YzAtNC40MjYgMy4zMDctNC42OTMgNS44MTUtNC43MjJ2Mi43MzZjLS44ODIgMC0yLjMyIDAtMi4zMiAyLjA5NHYuNzNoMi4zMnYyLjc0aC0yLjMyVjQwaC0zLjQ5NVYyNy44NDZtOC4yLTcuOTIyaDMuNDkydjEwLjg1Mmw1LjA0LTUuNjdoNC4ybC02LjA4MiA2LjU3TDk5LjYgNDBoLTRsLTUuMjUyLTcuNDM4VjQwaC0zLjQ5MlYxOS45MjRtMTYuNzggMTIuNjkzYzAgMS44NDggMS4zMDUgNC41MzQgNC40NTMgNC41MzQgMS45NDQgMCAzLjIyNi0xLjAzMiAzLjktMi4zODUuMzUtLjY1Ny41LTEuMzYuNTYyLTIuMS4wMjQtLjcwNy0uMTA3LTEuNDQyLS40MDMtMi4wOTUtLjYtMS40MDctMS45Ny0yLjYyNy00LjA3Ny0yLjYyNy0yLjgyNiAwLTQuNDI3IDIuMzMtNC40MjcgNC42Mzh2LjAyNXpNMTE1Ljk5NiA0MGgtMy40OTR2LTIuMTQzYy0uOTMzIDEuNzMzLTIuODggMi42MDMtNC45MzIgMi42MDMtNC42OTMgMC03LjQzNy0zLjcyLTcuNDM3LTcuOTIyIDAtNC42OTMgMy4zMy03Ljg5NCA3LjQzNy03Ljg5NCAyLjY2NSAwIDQuMjkyIDEuNDM4IDQuOTMyIDIuNjMzdi0yLjE3M2gzLjQ5NFY0MCIvPjwvc3ZnPg==;strokeWidth=1;" parent="1" vertex="1">
          <mxGeometry x="760" y="341.25" width="112" height="52" as="geometry" />
        </mxCell>
        <mxCell id="EtAnXmrmpmRFfEXg491m-162" value="" style="aspect=fixed;pointerEvents=1;shadow=0;dashed=0;html=1;strokeColor=none;labelPosition=center;verticalLabelPosition=bottom;verticalAlign=top;align=center;fillColor=#00188D;shape=mxgraph.azure.queue_generic" parent="1" vertex="1">
          <mxGeometry x="550" y="341.25" width="183.33" height="55" as="geometry" />
        </mxCell>
        <mxCell id="EtAnXmrmpmRFfEXg491m-180" value="" style="aspect=fixed;pointerEvents=1;shadow=0;dashed=0;html=1;strokeColor=none;labelPosition=center;verticalLabelPosition=bottom;verticalAlign=top;align=center;fillColor=#00188D;shape=mxgraph.azure.queue_generic" parent="1" vertex="1">
          <mxGeometry x="550" y="416.25" width="186" height="55.8" as="geometry" />
        </mxCell>
        <mxCell id="EtAnXmrmpmRFfEXg491m-183" value="" style="shape=image;verticalLabelPosition=bottom;labelBackgroundColor=#ffffff;verticalAlign=top;aspect=fixed;imageAspect=0;image=https://www.vectorlogo.zone/logos/debeziumio/debeziumio-icon.svg;" parent="1" vertex="1">
          <mxGeometry x="370" y="360" width="64" height="64" as="geometry" />
        </mxCell>
        <mxCell id="EtAnXmrmpmRFfEXg491m-185" value="&lt;span style=&quot;font-size: 18px&quot;&gt;Debezium&lt;/span&gt;&lt;br style=&quot;font-size: 18px&quot;&gt;&lt;span style=&quot;font-size: 18px&quot;&gt;MySQL&lt;/span&gt;" style="text;html=1;strokeColor=none;fillColor=none;align=center;verticalAlign=middle;whiteSpace=wrap;rounded=0;" parent="1" vertex="1">
          <mxGeometry x="300" y="396.25" width="40" height="20" as="geometry" />
        </mxCell>
        <mxCell id="EtAnXmrmpmRFfEXg491m-186" value="" style="endArrow=classic;html=1;strokeWidth=4;exitX=1;exitY=0.5;exitDx=0;exitDy=0;entryX=0;entryY=0.5;entryDx=0;entryDy=0;" parent="1" source="EtAnXmrmpmRFfEXg491m-182" target="EtAnXmrmpmRFfEXg491m-163" edge="1">
          <mxGeometry width="50" height="50" relative="1" as="geometry">
            <mxPoint x="810" y="510" as="sourcePoint" />
            <mxPoint x="860" y="460" as="targetPoint" />
          </mxGeometry>
        </mxCell>
        <mxCell id="EtAnXmrmpmRFfEXg491m-190" value="" style="html=1;verticalLabelPosition=bottom;align=center;labelBackgroundColor=#ffffff;verticalAlign=top;strokeWidth=2;strokeColor=#0080F0;shadow=0;dashed=0;shape=mxgraph.ios7.icons.data;" parent="1" vertex="1">
          <mxGeometry x="950" y="356.25" width="100" height="100" as="geometry" />
        </mxCell>
        <mxCell id="EtAnXmrmpmRFfEXg491m-191" value="" style="shape=image;verticalLabelPosition=bottom;labelBackgroundColor=#ffffff;verticalAlign=top;aspect=fixed;imageAspect=0;image=data:image/svg+xml,PHN2ZyB4bWxucz0iaHR0cDovL3d3dy53My5vcmcvMjAwMC9zdmciIGhlaWdodD0iOCIgdmlld0JveD0iMCAwIDkgOCIgd2lkdGg9IjkiPjxwYXRoIGQ9Im0wIDdoMXYxaC0xeiIgZmlsbD0iI2YwMCIvPjxwYXRoIGQ9Im0wIDBoMXY3aC0xem0yIDBoMXY4aC0xem0yIDBoMXY4aC0xem0yIDBoMXY4aC0xem0yIDMuMjVoMXYxLjVoLTF6IiBmaWxsPSIjZmMwIi8+PC9zdmc+;" parent="1" vertex="1">
          <mxGeometry x="1060" y="362" width="67.5" height="60" as="geometry" />
        </mxCell>
        <mxCell id="EtAnXmrmpmRFfEXg491m-192" value="ClickHouse" style="text;html=1;strokeColor=none;fillColor=none;align=center;verticalAlign=middle;whiteSpace=wrap;rounded=0;" parent="1" vertex="1">
          <mxGeometry x="1070" y="425" width="40" height="20" as="geometry" />
        </mxCell>
      </root>
    </mxGraphModel>
  </diagram>
</mxfile>
